<svg xmlns="http://www.w3.org/2000/svg" viewBox="0 0 30 20">
  <!-- Red stripes -->
  <rect width="30" height="1.54" y="0" fill="#B22234"/>
  <rect width="30" height="1.54" y="3.08" fill="#B22234"/>
  <rect width="30" height="1.54" y="6.16" fill="#B22234"/>
  <rect width="30" height="1.54" y="9.24" fill="#B22234"/>
  <rect width="30" height="1.54" y="12.32" fill="#B22234"/>
  <rect width="30" height="1.54" y="15.4" fill="#B22234"/>
  <rect width="30" height="1.54" y="18.46" fill="#B22234"/>
  
  <!-- White stripes -->
  <rect width="30" height="1.54" y="1.54" fill="white"/>
  <rect width="30" height="1.54" y="4.62" fill="white"/>
  <rect width="30" height="1.54" y="7.7" fill="white"/>
  <rect width="30" height="1.54" y="10.78" fill="white"/>
  <rect width="30" height="1.54" y="13.86" fill="white"/>
  <rect width="30" height="1.54" y="16.94" fill="white"/>
  
  <!-- Blue canton -->
  <rect width="12" height="10.78" fill="#3C3B6E"/>
  
  <!-- Stars (simplified) -->
  <circle cx="1.5" cy="1.5" r="0.5" fill="white"/>
  <circle cx="3.5" cy="1.5" r="0.5" fill="white"/>
  <circle cx="5.5" cy="1.5" r="0.5" fill="white"/>
  <circle cx="7.5" cy="1.5" r="0.5" fill="white"/>
  <circle cx="9.5" cy="1.5" r="0.5" fill="white"/>
  <circle cx="2.5" cy="3" r="0.5" fill="white"/>
  <circle cx="4.5" cy="3" r="0.5" fill="white"/>
  <circle cx="6.5" cy="3" r="0.5" fill="white"/>
  <circle cx="8.5" cy="3" r="0.5" fill="white"/>
  <circle cx="10.5" cy="3" r="0.5" fill="white"/>
</svg>